<?xml version="1.0"?>
<svg xmlns="http://www.w3.org/2000/svg" xmlns:xlink="http://www.w3.org/1999/xlink" xmlns:svgjs="http://svgjs.com/svgjs" version="1.1" width="512" height="512" x="0" y="0" viewBox="0 0 512 512" style="enable-background:new 0 0 512 512" xml:space="preserve" class=""><g>
<path xmlns="http://www.w3.org/2000/svg" style="" d="M457.251,118.884H54.749C30.035,118.884,10,138.918,10,163.632v195.669h75.278h20.428  c0-28.998,23.033-52.505,51.445-52.505s51.445,23.507,51.445,52.505H368.33c0-28.998,23.033-52.505,51.445-52.505  c28.413,0,51.446,23.507,51.446,52.505H502V163.632C502,138.918,481.965,118.884,457.251,118.884z" fill="#ffffff" data-original="#ffffff"/>
<g xmlns="http://www.w3.org/2000/svg">
	<polygon style="" points="460.964,359.302 490.822,359.385 502,359.385 502,255.385 10,255.385 10,359.385    70.105,359.385 106.383,359.302  " fill="#ff5d5d" data-original="#ff5d5d"/>
</g>
<rect xmlns="http://www.w3.org/2000/svg" x="286" y="164.56" style="" width="80" height="194.82" fill="#898998" data-original="#898998"/>
<rect xmlns="http://www.w3.org/2000/svg" x="190" y="158.88" style="" width="56" height="56" fill="#ade5ff" data-original="#ade5ff" class=""/>
<g xmlns="http://www.w3.org/2000/svg">
	<circle style="" cx="157.15" cy="359.12" r="34" fill="#898998" data-original="#898998"/>
	<circle style="" cx="419.77" cy="359.12" r="34" fill="#898998" data-original="#898998"/>
</g>
<g xmlns="http://www.w3.org/2000/svg">
	<polygon style="" points="499,164.473 406,164.473 406,254.388 498.25,254.388  " fill="#ade5ff" data-original="#ade5ff" class=""/>
	<rect x="94" y="158.88" style="" width="56" height="56" fill="#ade5ff" data-original="#ade5ff" class=""/>
	<rect x="10" y="158.88" style="" width="44" height="56" fill="#ade5ff" data-original="#ade5ff" class=""/>
</g>
<path xmlns="http://www.w3.org/2000/svg" d="M157.152,315.119c-24.262,0-44,19.738-44,44s19.738,44,44,44s44-19.738,44-44S181.414,315.119,157.152,315.119z   M157.152,383.119c-13.233,0-24-10.767-24-24s10.767-24,24-24s24,10.767,24,24S170.385,383.119,157.152,383.119z" fill="#000000" data-original="#000000" style="" class=""/>
<path xmlns="http://www.w3.org/2000/svg" d="M457.251,108.884H406c-5.523,0-10,4.477-10,10s4.477,10,10,10h51.251c15.991,0,29.484,10.86,33.515,25.59H406  c-5.523,0-10,4.477-10,10v89.915c0,5.523,4.477,10,10,10h86v84.914h-29.342c-4.474-19.549-21.996-34.183-42.882-34.183  s-38.408,14.633-42.882,34.183H376V164.562c0-5.523-4.477-10-10-10h-80c-5.523,0-10,4.477-10,10v80.322H90.333  c-5.523,0-10,4.477-10,10s4.477,10,10,10H276v84.417h-51c-5.523,0-10,4.477-10,10s4.477,10,10,10h151.978  c4.608,19.366,22.041,33.817,42.798,33.817s38.19-14.451,42.798-33.817H502c5.523,0,10-4.477,10-10V163.633  C512,133.444,487.44,108.884,457.251,108.884z M296,174.562h60v77.411h-6.321c-5.523,0-10,4.477-10,10s4.477,10,10,10H356v77.328  h-60V174.562z M419.775,383.119c-13.233,0-24-10.767-24-24s10.767-24,24-24s24,10.767,24,24S433.009,383.119,419.775,383.119z   M416,244.388v-69.915h76v69.915H416z" fill="#000000" data-original="#000000" style="" class=""/>
<path xmlns="http://www.w3.org/2000/svg" d="M366,128.881c2.63,0,5.21-1.07,7.07-2.93c1.86-1.86,2.93-4.44,2.93-7.07s-1.07-5.21-2.93-7.07s-4.44-2.93-7.07-2.93  s-5.21,1.07-7.07,2.93c-1.86,1.86-2.93,4.44-2.93,7.07s1.07,5.21,2.93,7.07C360.79,127.811,363.37,128.881,366,128.881z" fill="#000000" data-original="#000000" style="" class=""/>
<path xmlns="http://www.w3.org/2000/svg" d="M85.278,349.302H20V224.884h34c5.523,0,10-4.477,10-10v-56c0-5.523-4.477-10-10-10H23.294c5.558-11.806,17.564-20,31.454-20  H326c5.523,0,10-4.477,10-10s-4.477-10-10-10H54.749c-27.414,0-50.183,20.255-54.137,46.585C0.223,156.536,0,157.683,0,158.884  v200.417c0,5.523,4.477,10,10,10h75.278c5.523,0,10-4.477,10-10S90.801,349.302,85.278,349.302z M44,204.884H20v-36h24V204.884z" fill="#000000" data-original="#000000" style="" class=""/>
<path xmlns="http://www.w3.org/2000/svg" d="M54,244.881c-2.63,0-5.21,1.07-7.07,2.93s-2.93,4.44-2.93,7.07c0,2.64,1.07,5.21,2.93,7.07c1.86,1.87,4.44,2.93,7.07,2.93  s5.21-1.06,7.07-2.93c1.86-1.86,2.93-4.44,2.93-7.07s-1.07-5.21-2.93-7.07C59.21,245.951,56.63,244.881,54,244.881z" fill="#000000" data-original="#000000" style="" class=""/>
<path xmlns="http://www.w3.org/2000/svg" d="M190,148.884c-5.523,0-10,4.477-10,10v56c0,5.523,4.477,10,10,10h56c5.523,0,10-4.477,10-10v-56c0-5.523-4.477-10-10-10H190  z M236,204.884h-36v-36h36V204.884z" fill="#000000" data-original="#000000" style="" class=""/>
<path xmlns="http://www.w3.org/2000/svg" d="M94,148.884c-5.523,0-10,4.477-10,10v56c0,5.523,4.477,10,10,10h56c5.523,0,10-4.477,10-10v-56c0-5.523-4.477-10-10-10H94z   M140,204.884h-36v-36h36V204.884z" fill="#000000" data-original="#000000" style="" class=""/>
<g xmlns="http://www.w3.org/2000/svg">
</g>
<g xmlns="http://www.w3.org/2000/svg">
</g>
<g xmlns="http://www.w3.org/2000/svg">
</g>
<g xmlns="http://www.w3.org/2000/svg">
</g>
<g xmlns="http://www.w3.org/2000/svg">
</g>
<g xmlns="http://www.w3.org/2000/svg">
</g>
<g xmlns="http://www.w3.org/2000/svg">
</g>
<g xmlns="http://www.w3.org/2000/svg">
</g>
<g xmlns="http://www.w3.org/2000/svg">
</g>
<g xmlns="http://www.w3.org/2000/svg">
</g>
<g xmlns="http://www.w3.org/2000/svg">
</g>
<g xmlns="http://www.w3.org/2000/svg">
</g>
<g xmlns="http://www.w3.org/2000/svg">
</g>
<g xmlns="http://www.w3.org/2000/svg">
</g>
<g xmlns="http://www.w3.org/2000/svg">
</g>
</g></svg>
