<?xml version="1.0"?>
<svg xmlns="http://www.w3.org/2000/svg" xmlns:xlink="http://www.w3.org/1999/xlink" xmlns:svgjs="http://svgjs.com/svgjs" version="1.1" width="512" height="512" x="0" y="0" viewBox="0 0 496 496.08268" style="enable-background:new 0 0 512 512" xml:space="preserve" class=""><g><g xmlns="http://www.w3.org/2000/svg" fill="#57a4ff"><path d="m96.042969 472.082031v16h240v-16c0-8.835937-7.164063-16-16-16h-208c-8.839844 0-16 7.164063-16 16zm0 0" fill="#be3421" data-original="#57a4ff" style="" class=""/><path d="m144.042969 288.082031h40l-32-128h-112l-32 128zm0 0" fill="#be3421" data-original="#57a4ff" style="" class=""/><path d="m264.042969 40.082031c0 17.671875-14.328125 32-32 32-17.675781 0-32-14.328125-32-32s14.324219-32 32-32c17.671875 0 32 14.328125 32 32zm0 0" fill="#be3421" data-original="#57a4ff" style="" class=""/></g><path xmlns="http://www.w3.org/2000/svg" d="m400.042969 184.082031c-3.886719.015625-7.765625.386719-11.585938 1.105469l-123.078125-123.082031c9.464844-14.273438 8.792969-32.992188-1.675781-46.550781-10.46875-13.558594-28.410156-18.945313-44.617187-13.398438-16.203126 5.546875-27.082032 20.796875-27.042969 37.925781.039062 3.617188.578125 7.210938 1.597656 10.679688l-100.101563 69.320312h-29.496093c-4.421875 0-8 3.582031-8 8v24h-16c-3.671875 0-6.871094 2.496094-7.761719 6.058594l-32 128c-.597656 2.386719-.0625 4.921875 1.453125 6.863281s3.84375 3.078125 6.308594 3.078125h32.636719c3.957031 27.535157 27.542968 47.976563 55.363281 47.976563 27.816406 0 51.402343-20.441406 55.359375-47.976563h32.640625c2.460937 0 4.789062-1.136719 6.304687-3.078125s2.050782-4.476562 1.453125-6.863281l-32-128c-.890625-3.5625-4.089843-6.058594-7.757812-6.058594h-16v-24c0-4.417969-3.582031-8-8-8h-6.402344l79.441406-54.992187c12.796875 16.148437 35.847657 19.773437 52.984375 8.328125l117.453125 117.457031c-17.230469 8.53125-29.695312 24.378906-33.921875 43.140625-4.222656 18.757813.242188 38.421875 12.15625 53.515625l-145.265625 160.550781h-92.445312c-13.257813 0-24 10.746094-24 24v16c0 4.417969 3.578125 8 8 8h240c4.417969 0 8-3.582031 8-8v-16c0-13.253906-10.746094-24-24-24h-93.976563l135.078125-149.296875c22.15625 17.066406 52.828125 17.769532 75.742188 1.738282 22.914062-16.03125 32.765625-45.085938 24.328125-71.75-8.4375-26.660157-33.207032-44.757813-61.171875-44.691407zm-304 144c-19.003907-.023437-35.375-13.386719-39.203125-32h78.402344c-3.828126 18.613281-20.199219 31.976563-39.199219 32zm77.75-48h-155.503907l28-112h99.503907zm-101.75-128v-16h48v16zm136-112c0-13.253906 10.742187-24 24-24 13.253906 0 24 10.746094 24 24 0 13.253907-10.746094 24-24 24-13.257813 0-24-10.746093-24-24zm120 432v8h-224v-8c0-4.417969 3.578125-8 8-8h208c4.417969 0 8 3.582031 8 8zm72-176c-26.511719 0-48-21.488281-48-48 0-26.507812 21.488281-48 48-48 26.507812 0 48 21.492188 48 48-.027344 26.5-21.503907 47.972657-48 48zm0 0" fill="#000204" data-original="#004fac" style="" class=""/></g></svg>
