<svg id="Capa_1" enable-background="new 0 0 512.497 512.497" height="512" viewBox="0 0 512.497 512.497" width="512" xmlns="http://www.w3.org/2000/svg"><g><path d="m256.248 0c-99.252 0-180 80.748-180 180 0 124.016 161.609 318.882 168.489 327.117 5.988 7.168 17.026 7.178 23.022 0 6.88-8.235 168.489-203.102 168.489-327.117 0-99.252-80.747-180-180-180zm0 473.553c-36.94-46.94-150-198.396-150-293.553 0-82.71 67.29-150 150-150s150 67.29 150 150c0 95.157-113.059 246.613-150 293.553z"/><path d="m361.248 165h-16.257c-6.34-37.631-36.112-67.403-73.743-73.743v-16.257c0-8.284-6.716-15-15-15s-15 6.716-15 15v16.257c-37.631 6.341-67.403 36.113-73.743 73.743h-16.257c-8.284 0-15 6.716-15 15s6.716 15 15 15h16.257c6.34 37.631 36.112 67.403 73.743 73.743v16.257c0 8.284 6.716 15 15 15s15-6.716 15-15v-16.257c37.631-6.341 67.403-36.113 73.743-73.743h16.257c8.284 0 15-6.716 15-15s-6.715-15-15-15zm-105 75c-33.084 0-60-26.916-60-60s26.916-60 60-60 60 26.916 60 60-26.916 60-60 60z"/></g></svg>