<svg height="496pt" viewBox="0 0 496 496" width="496pt" xmlns="http://www.w3.org/2000/svg"><path d="m480 480h16v16h-16zm0 0"/><path d="m0 480h16v16h-16zm0 0"/><path d="m96 256h48v-80h-48zm16-64h16v48h-16zm0 0"/><path d="m160 176v80h48v-80zm32 64h-16v-48h16zm0 0"/><path d="m448 368h-16v-32h-24v-224h-32v-32h-32v-32h-32v-48h-16v48h-32v32h-32v32h-16v-16h-128v48h-24v128h-16v208h-16v16h432v-16h-16zm-16 16v96h-112v-96zm-16-16h-80v-16h80zm-136-304h48v16h-48zm-32 32h112v16h-112zm144 32v208h-72v32h-16v112h-16v-112h-16v-32h-16v-64h-16v-128h-24v-16zm-264 272h-32v-16h32zm80-64h-112v-16h112zm-48 16h96v16h-96zm112 32v96h-128v-96zm-168-272h96v32h-96zm-24 48h144v112h-144zm-16 128h176v48h-16v-32h-144v48h64v16h-64v48h48v64h-64zm0 0"/><path d="m256 400h-96v48h96zm-80 16h24v16h-24zm64 16h-24v-16h24zm0 0"/><path d="m416 400h-80v48h80zm-64 16h16v16h-16zm48 16h-16v-16h16zm0 0"/><path d="m376 144h-48v48h48zm-16 32h-16v-16h16zm0 0"/><path d="m376 208h-48v48h48zm-16 32h-16v-16h16zm0 0"/><path d="m376 272h-48v48h48zm-16 32h-16v-16h16zm0 0"/><path d="m312 144h-48v48h48zm-16 32h-16v-16h16zm0 0"/><path d="m312 208h-48v48h48zm-16 32h-16v-16h16zm0 0"/><path d="m312 272h-48v48h48zm-16 32h-16v-16h16zm0 0"/></svg>