<?xml version="1.0"?>
<svg xmlns="http://www.w3.org/2000/svg" xmlns:xlink="http://www.w3.org/1999/xlink" xmlns:svgjs="http://svgjs.com/svgjs" version="1.1" width="512" height="512" x="0" y="0" viewBox="0 0 350.451 350.451" style="enable-background:new 0 0 512 512" xml:space="preserve" class=""><g>
<g xmlns="http://www.w3.org/2000/svg">
	<g>
		<path d="M77.695,208.593c-17.985,0-32.562,14.571-32.562,32.559c0,17.988,14.576,32.559,32.562,32.559    c17.992,0,32.564-14.57,32.564-32.559C110.259,223.163,95.687,208.593,77.695,208.593z M77.695,255.306    c-7.818,0-14.153-6.334-14.153-14.154c0-7.822,6.335-14.154,14.153-14.154c7.819,0,14.159,6.332,14.159,14.154    C91.854,248.972,85.514,255.306,77.695,255.306z" fill="#ffffff" data-original="#000000" style="" class=""/>
		<path d="M268.854,208.593c-17.986,0-32.561,14.571-32.561,32.559c0,17.988,14.574,32.559,32.561,32.559    c17.992,0,32.564-14.57,32.564-32.559S286.846,208.593,268.854,208.593z M268.854,255.306c-7.818,0-14.154-6.334-14.154-14.154    c0-7.822,6.336-14.154,14.154-14.154c7.82,0,14.16,6.332,14.16,14.154C283.014,248.972,276.674,255.306,268.854,255.306z" fill="#ffffff" data-original="#000000" style="" class=""/>
		<path d="M330.998,76.741H38.915c-10.701,0-21.207,8.579-23.348,19.064L3.892,138.423C1.751,148.908,0,166.242,0,176.944v44.751    c0,10.7,8.756,19.456,19.457,19.456h19.839c0-21.17,17.226-38.395,38.398-38.395c21.174,0,38.401,17.223,38.401,38.395h114.358    c0-21.17,17.227-38.395,38.398-38.395c21.176,0,38.402,17.223,38.402,38.395h23.74c10.703,0,19.457-8.754,19.457-19.456V96.197    C350.455,85.496,341.699,76.741,330.998,76.741z M80.856,158.836H35.512l7.186-17.019c1.254-2.97-0.137-6.394-3.106-7.648    c-2.972-1.254-6.395,0.138-7.647,3.107l-8.91,21.103c-6.015-1.581-9.676-7.214-8.437-13.89l10.46-41.74    c1.465-7.891,9.23-14.348,17.256-14.348h38.543L80.856,158.836L80.856,158.836z M167.439,158.836H92.53V88.401h74.909V158.836z     M254.021,158.836h-74.908V88.401h74.908V158.836z M338.523,144.244c0,8.026-6.566,14.593-14.594,14.593h-58.234V88.402h58.234    c8.027,0,14.594,6.567,14.594,14.593V144.244z" fill="#ffffff" data-original="#000000" style="" class=""/>
	</g>
</g>
<g xmlns="http://www.w3.org/2000/svg">
</g>
<g xmlns="http://www.w3.org/2000/svg">
</g>
<g xmlns="http://www.w3.org/2000/svg">
</g>
<g xmlns="http://www.w3.org/2000/svg">
</g>
<g xmlns="http://www.w3.org/2000/svg">
</g>
<g xmlns="http://www.w3.org/2000/svg">
</g>
<g xmlns="http://www.w3.org/2000/svg">
</g>
<g xmlns="http://www.w3.org/2000/svg">
</g>
<g xmlns="http://www.w3.org/2000/svg">
</g>
<g xmlns="http://www.w3.org/2000/svg">
</g>
<g xmlns="http://www.w3.org/2000/svg">
</g>
<g xmlns="http://www.w3.org/2000/svg">
</g>
<g xmlns="http://www.w3.org/2000/svg">
</g>
<g xmlns="http://www.w3.org/2000/svg">
</g>
<g xmlns="http://www.w3.org/2000/svg">
</g>
</g></svg>
