<?xml version="1.0" encoding="iso-8859-1"?>
<!-- Generator: Adobe Illustrator 19.0.0, SVG Export Plug-In . SVG Version: 6.00 Build 0)  -->
<svg version="1.1" id="Capa_1" xmlns="http://www.w3.org/2000/svg" xmlns:xlink="http://www.w3.org/1999/xlink" x="0px" y="0px"
	 viewBox="0 0 512.004 512.004" style="enable-background:new 0 0 512.004 512.004;" xml:space="preserve">
<g>
	<g>
		<g>
			<path d="M506.625,235.884L217.344,70.434c-22.313-12.782-52.854-5.891-67.563,15.159L93.74,165.707
				c-5.5,7.872-8.406,17.099-8.406,26.701c0,16.588,8.917,32.039,23.26,40.317l61.01,35.233l-11.021,14.707
				c-5.969,7.955-9.25,17.818-9.25,27.765c0,10.229,3.746,19.851,9.78,27.805l-16.238,24.433H64v-32.105
				c0-5.901-4.771-10.561-10.667-10.561H10.667C4.771,320.002,0,324.662,0,330.563v106.763c0,5.901,4.771,10.676,10.667,10.676
				h42.667c5.896,0,10.667-4.775,10.667-10.676v-10.657h78.875c21.448,0,41.354-10.654,53.25-28.513l17.484-26.25
				c3.367,0.731,6.763,1.394,10.234,1.394c16.979,0,32.958-9.05,41.688-23.625l11.72-19.551l90.78,52.425
				c1.635,0.949,3.479,1.428,5.333,1.428c1.031,0,2.063-0.146,3.073-0.448c2.813-0.855,5.156-2.826,6.469-5.453l7.897-15.829
				c1.296,0.098,2.543,0.378,3.863,0.378c41.167,0,74.667-33.53,74.667-74.734c0-4.525-0.668-9.188-1.661-13.955l38.432-19.231
				c3.521-1.762,5.781-5.317,5.896-9.258C512.104,241.514,510.042,237.834,506.625,235.884z M42.667,426.669H21.333v-85.333h21.333
				V426.669z M178.375,386.367c-7.927,11.896-21.198,19-35.5,19H64v-21.333h78.875c7.167,0,13.802-3.552,17.75-9.5l14.771-22.164
				l18.318,10.988L178.375,386.367z M247.24,338.783c-7.458,12.406-25.01,16.823-37.427,9.354l-27.052-16.229
				c-7.458-4.469-12.094-12.656-12.094-21.354c0-5.354,1.771-10.656,4.979-14.948l12.564-16.751l70.56,40.711L247.24,338.783z
				 M368.885,358.471L119.25,214.439c-7.76-4.479-12.583-12.833-12.583-21.802c0-5.198,1.573-10.188,4.552-14.448L138,139.939
				l263.967,152.284L368.885,358.471z M401.62,340.663l22.328-44.714l23.695-11.846c0.119,1.309,0.357,2.664,0.357,3.93
				C448,315.058,427.717,337.213,401.62,340.663z M416.362,275.894l-266.078-153.5l16.977-24.246
				c5.615-8.021,14.802-12.813,24.594-12.813c5.219,0,10.375,1.365,14.906,3.958L478.74,244.71L416.362,275.894z"/>
			<circle cx="352.002" cy="309.335" r="10.667"/>
		</g>
	</g>
</g>
<g>
</g>
<g>
</g>
<g>
</g>
<g>
</g>
<g>
</g>
<g>
</g>
<g>
</g>
<g>
</g>
<g>
</g>
<g>
</g>
<g>
</g>
<g>
</g>
<g>
</g>
<g>
</g>
<g>
</g>
</svg>
