<?xml version="1.0"?>
<svg xmlns="http://www.w3.org/2000/svg" xmlns:xlink="http://www.w3.org/1999/xlink" xmlns:svgjs="http://svgjs.com/svgjs" version="1.1" width="512" height="512" x="0" y="0" viewBox="0 0 511.979 511.979" style="enable-background:new 0 0 512 512" xml:space="preserve" class=""><g><g xmlns="http://www.w3.org/2000/svg"><g><path d="m331.579 510.862c-10.371 0-19.335-1.902-26.43-4.235-16.88-5.551-27.031-14.653-27.454-15.038-3.113-2.825-3.345-7.639-.519-10.751 2.82-3.108 7.619-3.343 10.732-.537 1.391 1.243 33.734 29.383 79.024 6.397 18.208-9.239 25.228-27.254 32.66-46.327 12.979-33.307 27.695-71.053 106.354-54.365 4.112.873 6.738 4.914 5.866 9.025-.873 4.114-4.921 6.738-9.025 5.866-44.933-9.533-60.061 1.686-65.032 5.371-12.008 8.906-17.823 23.829-23.979 39.629-7.763 19.924-16.562 42.505-39.954 54.376-15.545 7.888-29.892 10.589-42.243 10.589z" fill="#454045" data-original="#454045" style=""/></g><path d="m360.92 292.803h-133.223c-5.215 0-9.442-4.227-9.442-9.442v-133.223c0-78.792 63.873-142.665 142.665-142.665 78.792 0 142.665 63.873 142.665 142.665 0 78.792-63.874 142.665-142.665 142.665z" fill="#be3421" data-original="#da4a54" style="" class=""/><path d="m360.92 7.473c-4.795 0-9.533.241-14.206.703 72.122 7.13 128.459 67.965 128.459 141.962 0 78.792-63.873 142.665-142.665 142.665h28.411c78.792 0 142.665-63.873 142.665-142.665.001-78.792-63.873-142.665-142.664-142.665z" fill="#72190d" data-original="#d82e3d" style="" class=""/><g><path d="m190.578 89.654c-.941 0-1.898-.175-2.825-.547-3.903-1.561-5.801-5.991-4.239-9.894 12.049-30.113 31.785-56.884 57.072-77.422 3.264-2.65 8.057-2.153 10.707 1.11s2.153 8.057-1.11 10.707c-23.281 18.907-41.448 43.548-52.537 71.259-1.19 2.976-4.048 4.787-7.068 4.787z" fill="#be3421" data-original="#da4a54" style="" class=""/></g><g><path d="m175.687 56.1c-.941 0-1.899-.175-2.825-.547-3.903-1.562-5.801-5.991-4.239-9.894 6.768-16.914 17.852-31.95 32.052-43.482 3.262-2.65 8.056-2.154 10.706 1.111 2.65 3.262 2.153 8.056-1.111 10.706-12.193 9.901-21.708 22.807-27.515 37.319-1.191 2.977-4.049 4.787-7.068 4.787z" fill="#be3421" data-original="#da4a54" style="" class=""/></g><g><path d="m463.967 342.039c-3.02 0-5.878-1.81-7.068-4.786-1.562-3.903.336-8.332 4.239-9.894 14.513-5.807 27.418-15.322 37.319-27.515 2.65-3.263 7.444-3.761 10.706-1.111 3.263 2.65 3.761 7.444 1.111 10.706-11.532 14.201-26.568 25.284-43.482 32.052-.926.372-1.883.548-2.825.548z" fill="#be3421" data-original="#da4a54" style="" class=""/></g><g><path d="m430.027 327.146c-3.02 0-5.878-1.81-7.068-4.786-1.562-3.903.336-8.333 4.239-9.894 27.711-11.089 52.352-29.255 71.259-52.536 2.65-3.263 7.443-3.76 10.707-1.11 3.262 2.65 3.76 7.444 1.11 10.707-20.537 25.287-47.309 45.023-77.422 57.071-.926.373-1.883.548-2.825.548z" fill="#be3421" data-original="#da4a54" style="" class=""/></g><path d="m419.137 126.781h-31.141c-2.054 0-3.719-1.665-3.719-3.719v-31.141c0-5.456-4.423-9.879-9.879-9.879h-26.955c-5.456 0-9.879 4.423-9.879 9.879v31.141c0 2.054-1.665 3.719-3.719 3.719h-31.141c-5.456 0-9.879 4.423-9.879 9.879v26.955c0 5.456 4.423 9.879 9.879 9.879h31.141c2.054 0 3.719 1.665 3.719 3.719v31.141c0 5.456 4.423 9.879 9.879 9.879h26.955c5.456 0 9.879-4.423 9.879-9.879v-31.141c0-2.054 1.665-3.719 3.719-3.719h31.141c5.456 0 9.879-4.423 9.879-9.879v-26.955c0-5.456-4.423-9.879-9.879-9.879z" fill="#f6f1f1" data-original="#f6f1f1" style="" class=""/><g fill="#eadfda"><path d="m365.739 91.921v31.141c0 2.054 1.665 3.719 3.719 3.719h18.537c-2.054 0-3.719-1.665-3.719-3.719v-31.141c0-5.456-4.423-9.879-9.879-9.879h-18.537c5.456 0 9.879 4.423 9.879 9.879z" fill="#eadfda" data-original="#eadfda" style="" class=""/><path d="m365.739 177.214v31.141c0 5.456-4.423 9.879-9.879 9.879h18.537c5.456 0 9.879-4.423 9.879-9.879v-31.141c0-2.054 1.665-3.719 3.719-3.719h-18.537c-2.054-.001-3.719 1.665-3.719 3.719z" fill="#eadfda" data-original="#eadfda" style="" class=""/><path d="m419.137 126.781h-18.537c5.456 0 9.879 4.423 9.879 9.879v26.955c0 5.456-4.423 9.879-9.879 9.879h18.537c5.456 0 9.879-4.423 9.879-9.879v-26.955c0-5.456-4.423-9.879-9.879-9.879z" fill="#eadfda" data-original="#eadfda" style="" class=""/></g><path d="m245.202 371.646-28.776 18.494c-10.899 7.005-24.967 7.049-35.739-.149-44.741-29.894-71.417-71.398-80.024-124.512-2.073-12.789 3.811-25.566 14.71-32.571l28.78-18.497c-4.801-3.625 6.171-15.69 1.825-19.586-24.861-22.289-42.228-49.035-51.646-80.509-1.581-5.282-18.485-2.393-19.615-7.943l-21.494 13.814c-46.677 30-65.639 88.978-44.823 140.412 32.169 79.486 79.454 153.058 138.398 215.337 38.141 40.299 99.667 47.549 146.344 17.549l21.493-13.813c-6.938-5.238 4.734-20.045-1.25-25.85-21.443-20.801-36.718-45.271-45.489-73.61-1.791-5.789-21.448-2.452-22.694-8.566z" fill="#be3421" data-original="#da4a54" style="" class=""/><path d="m98.344 243.558c-10.899 7.005-16.782 19.782-14.71 32.571 8.608 53.114 35.283 94.617 80.024 124.512 10.773 7.198 24.84 7.154 35.739.149l13.637-8.765c-10.316 5.036-22.661 4.439-32.349-2.034-44.741-29.894-71.417-71.398-80.024-124.512-2.073-12.789 3.811-25.566 14.71-32.571z" fill="#72190d" data-original="#d82e3d" style="" class=""/><path d="m124.084 107.384 39.655 61.701c8.224 12.796 4.517 29.835-8.278 38.059l-11.309 7.268c-36.878-27.844-60.391-63.639-69.436-108.038l11.309-7.268c12.796-8.224 29.835-4.518 38.059 8.278z" fill="#f6f1f1" data-original="#f6f1f1" style="" class=""/><path d="m294.567 372.645 39.655 61.701c8.224 12.796 4.517 29.835-8.278 38.059l-11.309 7.268c-36.878-27.844-60.391-63.639-69.436-108.038l11.309-7.268c12.795-8.224 29.835-4.518 38.059 8.278z" fill="#f6f1f1" data-original="#f6f1f1" style="" class=""/><g fill="#eadfda"><path d="m334.222 434.345-39.649-61.691c-8.224-12.796-25.263-16.502-38.059-8.278l-13.83 8.888c12.31-5.792 27.305-1.717 34.861 10.039l39.649 61.691c8.224 12.796 4.517 29.835-8.278 38.059l-21.943 14.102c2.079-1.162 4.143-2.369 6.169-3.671l32.801-21.081c12.796-8.222 16.502-25.262 8.279-38.058z" fill="#eadfda" data-original="#eadfda" style="" class=""/><path d="m155.461 207.143c12.796-8.224 16.502-25.263 8.278-38.059l-39.655-61.701c-8.224-12.796-25.263-16.502-38.059-8.278l-13.83 8.888c12.31-5.792 27.305-1.717 34.861 10.039l39.655 61.701c8.224 12.796 4.517 29.835-8.278 38.059z" fill="#eadfda" data-original="#eadfda" style="" class=""/></g></g></g></svg>
