<?xml version="1.0"?>
<svg xmlns="http://www.w3.org/2000/svg" width="512" height="512" viewBox="0 0 512 512"><g><path d="M481.607,399.4c19.1-63.342,19.1-127.458,0-190.8a48,48,0,1,0-66.6-65.579,853.377,853.377,0,0,0-318.022,0,48,48,0,1,0-66.6,65.579c-19.1,63.342-19.1,127.458,0,190.8a48,48,0,1,0,66.6,65.579,853.377,853.377,0,0,0,318.022,0,48,48,0,1,0,66.6-65.579ZM456,472a32.016,32.016,0,0,1-29.332-19.2,7.994,7.994,0,0,0-8.868-4.647,837.631,837.631,0,0,1-323.6,0,7.994,7.994,0,0,0-8.868,4.647A32,32,0,1,1,43.2,410.668a8,8,0,0,0,4.411-9.783c-20.71-64.288-20.71-129.482,0-193.77a8,8,0,0,0-4.411-9.783A32,32,0,1,1,85.332,155.2a8,8,0,0,0,8.868,4.647,837.631,837.631,0,0,1,323.6,0,8,8,0,0,0,8.868-4.647A32,32,0,1,1,468.8,197.332a8,8,0,0,0-4.411,9.783c20.71,64.288,20.71,129.482,0,193.77a8,8,0,0,0,4.411,9.783A32,32,0,0,1,456,472Z"/><path d="M382.786,422.267A833.8,833.8,0,0,1,176.764,428.2a8,8,0,0,0-1.528,15.928q40.113,3.847,80.547,3.847a853.2,853.2,0,0,0,129.431-9.892,8,8,0,0,0-2.428-15.814Z"/><path d="M280,176h15.355l-21.6,27A8,8,0,0,0,280,216h32a8,8,0,0,0,0-16H296.645l21.6-27A8,8,0,0,0,312,160H280a8,8,0,0,0,0,16Z"/><path d="M352,80h15.355l-21.6,27A8,8,0,0,0,352,120h32a8,8,0,0,0,0-16H368.645l21.6-27A8,8,0,0,0,384,64H352a8,8,0,0,0,0,16Z"/><path d="M256,40h15.355l-21.6,27A8,8,0,0,0,256,80h32a8,8,0,0,0,0-16H272.645l21.6-27A8,8,0,0,0,288,24H256a8,8,0,0,0,0,16Z"/></g></svg>
