<svg id="Capa_1" enable-background="new 0 0 512 512" height="512" viewBox="0 0 512 512" width="512" xmlns="http://www.w3.org/2000/svg"><g><path d="m166 0c-8.284 0-15 6.716-15 15v77h-45c-8.284 0-15 6.716-15 15v60c0 8.284 6.716 15 15 15h15v75c0 69.627 52.985 127.107 120.751 134.249 7.142 67.766 64.622 120.751 134.249 120.751 8.284 0 15-6.716 15-15s-6.716-15-15-15c-53.132 0-97.167-39.67-104.057-90.946 66.953-7.913 119.057-65.009 119.057-134.054v-75h15c8.284 0 15-6.716 15-15v-60c0-8.284-6.716-15-15-15h-45v-77c0-8.284-6.716-15-15-15s-15 6.716-15 15v77h-150v-77c0-8.284-6.716-15-15-15zm225 152h-15c-8.284 0-15 6.716-15 15v90c0 57.897-47.103 105-105 105s-105-47.103-105-105v-90c0-8.284-6.716-15-15-15h-15v-30h270z"/><path d="m292.708 243.583-41.386-20.693 15.284-15.284c14.022-14.021-7.17-35.258-21.213-21.213l-30 30c-7.231 7.231-5.256 19.446 3.898 24.023l41.386 20.693-15.284 15.284c-14.055 14.054 7.331 35.097 21.213 21.213l30-30c7.232-7.231 5.256-19.445-3.898-24.023z"/></g></svg>