<svg id="Capa_1" enable-background="new 0 0 512 512" height="512" viewBox="0 0 512 512" width="512" xmlns="http://www.w3.org/2000/svg"><g><circle cx="256" cy="271" r="15"/><path d="m256 0c-140.958 0-256 115.049-256 256 0 140.961 115.049 256 256 256 140.96 0 256-115.049 256-256 0-140.958-115.049-256-256-256zm0 61c97.323 0 178.219 71.668 192.692 165h-52.019c-32.982 0-64.318-13.235-85.973-36.311-29.6-31.546-79.797-31.556-109.4-.001-21.655 23.077-52.991 36.312-85.974 36.312h-52.018c14.473-93.332 95.369-165 192.692-165zm0 255c-24.812 0-45-20.186-45-45s20.188-45 45-45c24.814 0 45 20.186 45 45s-20.186 45-45 45zm-181.58 11.097c17.17-6.736 29.568-11.097 46.58-11.097 54.688 0 97.219 48.734 88.981 103.49h-.035c-1.224 8.381-3.632 16.502-7.105 24.145-58.759-16.67-106.31-60.262-128.421-116.538zm234.751 116.534c-3.568-7.845-5.924-15.965-7.117-24.141h-.035c-9.599-63.805 49.301-116.452 110.354-100.936 6.436 1.636 14.49 4.34 25.206 8.544-22.109 56.271-69.655 99.861-128.408 116.533z"/></g></svg>