<?xml version="1.0" encoding="iso-8859-1"?>
<!-- Generator: Adobe Illustrator 19.0.0, SVG Export Plug-In . SVG Version: 6.00 Build 0)  -->
<svg version="1.1" id="Capa_1" xmlns="http://www.w3.org/2000/svg" xmlns:xlink="http://www.w3.org/1999/xlink" x="0px" y="0px"
	 viewBox="0 0 496 496" style="enable-background:new 0 0 496 496;" xml:space="preserve">
<g>
	<g>
		<path d="M288,144V40c0-22.056-17.944-40-40-40H40C17.944,0,0,17.944,0,40v416c0,22.056,17.944,40,40,40h208
			c22.056,0,40-17.944,40-40V352h208V144H288z M16,40c0-13.232,10.768-24,24-24h208c13.232,0,24,10.768,24,24v16H16V40z M272,456
			c0,13.232-10.768,24-24,24H40c-13.232,0-24-10.768-24-24v-24h256V456z M272,416H16V72h256v72H96v80h8c13.232,0,24,10.768,24,24
			s-10.768,24-24,24h-8v80h176V416z M480,336H256v-16h-16v16H112v-48.808c18.232-3.72,32-19.872,32-39.192s-13.768-35.48-32-39.192
			V160h128v16h16v-16h224V336z"/>
	</g>
</g>
<g>
	<g>
		<rect x="240" y="192" width="16" height="16"/>
	</g>
</g>
<g>
	<g>
		<rect x="240" y="224" width="16" height="16"/>
	</g>
</g>
<g>
	<g>
		<rect x="240" y="256" width="16" height="16"/>
	</g>
</g>
<g>
	<g>
		<rect x="240" y="288" width="16" height="16"/>
	</g>
</g>
<g>
	<g>
		<rect x="136" y="176" width="16" height="16"/>
	</g>
</g>
<g>
	<g>
		<rect x="168" y="176" width="16" height="16"/>
	</g>
</g>
<g>
	<g>
		<rect x="200" y="176" width="16" height="16"/>
	</g>
</g>
<g>
	<g>
		<rect x="384" y="304" width="16" height="16"/>
	</g>
</g>
<g>
	<g>
		<rect x="352" y="304" width="16" height="16"/>
	</g>
</g>
<g>
	<g>
		<rect x="416" y="304" width="16" height="16"/>
	</g>
</g>
<g>
	<g>
		<rect x="448" y="304" width="16" height="16"/>
	</g>
</g>
<g>
	<g>
		<rect x="160" y="208" width="64" height="16"/>
	</g>
</g>
<g>
	<g>
		<rect x="160" y="272" width="64" height="16"/>
	</g>
</g>
<g>
	<g>
		<rect x="160" y="240" width="64" height="16"/>
	</g>
</g>
<g>
	<g>
		<rect x="376" y="192" width="88" height="16"/>
	</g>
</g>
<g>
	<g>
		<rect x="272" y="192" width="88" height="16"/>
	</g>
</g>
<g>
	<g>
		<rect x="272" y="224" width="192" height="16"/>
	</g>
</g>
<g>
	<g>
		<rect x="272" y="256" width="192" height="16"/>
	</g>
</g>
<g>
	<g>
		<rect x="104" y="448" width="80" height="16"/>
	</g>
</g>
<g>
	<g>
		<rect x="32" y="88" width="16" height="16"/>
	</g>
</g>
<g>
	<g>
		<rect x="32" y="120" width="16" height="280"/>
	</g>
</g>
<g>
	<g>
		<rect x="160" y="304" width="64" height="16"/>
	</g>
</g>
<g>
	<g>
		<rect x="128" y="304" width="16" height="16"/>
	</g>
</g>
<g>
</g>
<g>
</g>
<g>
</g>
<g>
</g>
<g>
</g>
<g>
</g>
<g>
</g>
<g>
</g>
<g>
</g>
<g>
</g>
<g>
</g>
<g>
</g>
<g>
</g>
<g>
</g>
<g>
</g>
</svg>
