<svg id="Capa_1" enable-background="new 0 0 512 512" height="512" viewBox="0 0 512 512" width="512" xmlns="http://www.w3.org/2000/svg"><g><path d="m467 90h-174.787l64.393-64.393c5.858-5.858 5.858-15.355 0-21.213-5.857-5.858-15.355-5.858-21.213 0l-79.393 79.393-79.393-79.394c-5.857-5.858-15.355-5.858-21.213 0s-5.858 15.355 0 21.213l64.393 64.394h-174.787c-24.813 0-45 20.187-45 45v302c0 24.813 20.187 45 45 45h45v15c0 8.284 6.716 15 15 15s15-6.716 15-15v-15h272v15c0 8.284 6.716 15 15 15s15-6.716 15-15v-15h45c24.813 0 45-20.187 45-45v-302c0-24.813-20.186-45-45-45zm15 347c0 8.271-6.729 15-15 15h-422c-8.271 0-15-6.729-15-15v-302c0-8.271 6.729-15 15-15h422c8.271 0 15 6.729 15 15z"/><path d="m377 150h-302c-8.284 0-15 6.716-15 15v242c0 8.284 6.716 15 15 15h302c8.284 0 15-6.716 15-15v-242c0-8.284-6.716-15-15-15zm-15 242h-272v-212h272z"/><circle cx="437" cy="195" r="15"/><circle cx="437" cy="255" r="15"/><path d="m437 300c-8.284 0-15 6.716-15 15v62c0 8.284 6.716 15 15 15s15-6.716 15-15v-62c0-8.284-6.716-15-15-15z"/></g></svg>